# xmcd CD database file
#
# Track frame offsets:
#	150
#	20784
#	41970
#	57833
#	76710
#	94022
#	112223
#	131203
#	150899
#
# Disc length: 2277 seconds
#
# Revision: 1
# Processed by: cddbd v1.5.1PL2 Copyright (c) Steve Scherf et al.
# Submitted via: CDex 1.51
#
DISCID=7108e309
DTITLE=REBECCA - TIME  REBECCA COMPLETE BOX 〜20th anniversary〜
DYEAR=1986
DGENRE=Rock
TTITLE0=WHEN A WOMAN LOVES A MAN
TTITLE1=LONELY BUTTERFLY
TTITLE2=TIME
TTITLE3=(It's just a)SMILE
TTITLE4=GIRL SCHOOL
TTITLE5=BOSS IS ALWAY BOSSING
TTITLE6=CHEAP HIPPIES
TTITLE7=WHITE SUNDAY
TTITLE8=NEVER TOLD YOU BUT I LOVE YOU
EXTD=YEAR: 1986
EXTT0=
EXTT1=
EXTT2=
EXTT3=
EXTT4=
EXTT5=
EXTT6=
EXTT7=
EXTT8=
PLAYORDER=
